<svg xmlns="http://www.w3.org/2000/svg" width="805" height="600"><rect width="805" height="600" x="0" y="0" fill="#FFFFFF" id="background"/><g transform="translate(402.5,300)" id="viz"><path fill="#1f77b4" display="" d="M0.9999920729479248,-287.99826391118063A288,288,0,0,1,11.603494275202207,287.7661531879755L6.338129416372354,144.86141002869368A145,145,0,0,0,0.999992072947915,-144.99655173780528Z"><title>Comida y Bebida</title></path><path fill="#2ca02c" display="" d="M9.604866312305065,287.83979318906336A288,288,0,0,1,-205.31287739086372,-201.966884358511L-103.71692795010415,-101.33014781689062A145,145,0,0,0,4.339501453475212,144.93505002978156Z"><title>Entretenimiento</title></path><path fill="#ff7f0e" display="" d="M-203.90539859554752,-203.38777845187968A288,288,0,0,1,-171.38434473791008,-231.45497700148334L-86.68579366505301,-116.23499118879761A145,145,0,0,0,-102.30944915478801,-102.75104191025922Z"><title>Vehiculo</title></path><path fill="#d62728" display="" d="M-169.77290847317272,-232.63954854787636A288,288,0,0,1,-0.99999207294796,-287.99826391118063L-0.9999920729479006,-144.99655173780528A145,145,0,0,0,-85.07435740031568,-117.41956273519055Z"><title>Deportes y Aficiones</title></path></g><g id="labels" transform="translate(402.5,300)" text-anchor="middle"><text transform="rotate(90) translate(72.5,0) rotate(180)"><tspan x="0" y="4" style="font-family: Arial, sans-serif; font-size: 10px; fill: black; font-weight: normal; font-style: italic;"/></text><text transform="rotate(-1.0550621669626992) translate(217.5,0) rotate(0)"><tspan x="0" y="-2" style="font-family: Arial, sans-serif; font-size: 10px; fill: black; font-weight: bold;">139100</tspan><tspan x="0" y="10" style="font-family: Arial, sans-serif; font-size: 10px; fill: black; font-weight: normal;">Comida y Bebida</tspan></text><text transform="rotate(156.3090586145648) translate(217.5,0) rotate(180)"><tspan x="0" y="-2" style="font-family: Arial, sans-serif; font-size: 10px; fill: black; font-weight: bold;">107000</tspan><tspan x="0" y="10" style="font-family: Arial, sans-serif; font-size: 10px; fill: black; font-weight: normal;">Entretenimiento</tspan></text><text transform="rotate(229.20426287744226) translate(217.5,0) rotate(180)"><tspan x="0" y="-2" style="font-family: Arial, sans-serif; font-size: 10px; fill: black; font-weight: bold;">7000</tspan><tspan x="0" y="10" style="font-family: Arial, sans-serif; font-size: 10px; fill: black; font-weight: normal;">Vehiculo</tspan></text><text transform="rotate(251.8401420959147) translate(217.5,0) rotate(180)"><tspan x="0" y="-2" style="font-family: Arial, sans-serif; font-size: 10px; fill: black; font-weight: bold;">28400</tspan><tspan x="0" y="10" style="font-family: Arial, sans-serif; font-size: 10px; fill: black; font-weight: normal;">Deportes y Aficiones</tspan></text></g></svg>
